<svg width="380" height="245" viewBox="0 0 380 245" fill="none" xmlns="http://www.w3.org/2000/svg">
<rect x="5" y="4" width="375" height="241" rx="10" fill="#AFAFAF"/>
<rect width="374" height="241" rx="10" fill="white"/>
<path fill-rule="evenodd" clip-rule="evenodd" d="M10 0C4.47715 0 0 4.47715 0 10V24H374V10C374 4.47715 369.523 0 364 0H10Z" fill="#D9D9D9"/>
<circle cx="17" cy="12" r="4" fill="#DF2E2E"/>
<circle cx="31" cy="12" r="4" fill="#FFAC02"/>
<circle cx="44" cy="12" r="4" fill="#4AAC00"/>
<path d="M19.24 77L22.12 70H22.92L25.78 77H24.54L22.3 71.33H22.72L20.46 77H19.24ZM20.66 75.65V74.65H24.37V75.65H20.66ZM28.3583 77.1C27.9249 77.1 27.5316 76.99 27.1783 76.77C26.8316 76.55 26.5549 76.2533 26.3483 75.88C26.1483 75.5 26.0483 75.0767 26.0483 74.61C26.0483 74.1367 26.1483 73.7133 26.3483 73.34C26.5549 72.96 26.8316 72.66 27.1783 72.44C27.5316 72.2133 27.9249 72.1 28.3583 72.1C28.7249 72.1 29.0483 72.18 29.3283 72.34C29.6149 72.4933 29.8416 72.7067 30.0083 72.98C30.1749 73.2533 30.2583 73.5633 30.2583 73.91V75.29C30.2583 75.6367 30.1749 75.9467 30.0083 76.22C29.8483 76.4933 29.6249 76.71 29.3383 76.87C29.0516 77.0233 28.7249 77.1 28.3583 77.1ZM28.5383 76.06C28.8116 76.06 29.0483 76 29.2483 75.88C29.4549 75.7533 29.6149 75.58 29.7283 75.36C29.8416 75.14 29.8983 74.8867 29.8983 74.6C29.8983 74.3133 29.8416 74.06 29.7283 73.84C29.6149 73.62 29.4549 73.45 29.2483 73.33C29.0483 73.2033 28.8116 73.14 28.5383 73.14C28.2716 73.14 28.0349 73.2033 27.8283 73.33C27.6283 73.45 27.4683 73.62 27.3483 73.84C27.2349 74.06 27.1783 74.3133 27.1783 74.6C27.1783 74.8867 27.2349 75.14 27.3483 75.36C27.4683 75.58 27.6283 75.7533 27.8283 75.88C28.0349 76 28.2716 76.06 28.5383 76.06ZM30.9283 77H29.8283V75.71L30.0183 74.54L29.8283 73.38V69.8H30.9283V77ZM34.1591 77.1C33.7257 77.1 33.3324 76.99 32.9791 76.77C32.6324 76.55 32.3557 76.2533 32.1491 75.88C31.9491 75.5 31.8491 75.0767 31.8491 74.61C31.8491 74.1367 31.9491 73.7133 32.1491 73.34C32.3557 72.96 32.6324 72.66 32.9791 72.44C33.3324 72.2133 33.7257 72.1 34.1591 72.1C34.5257 72.1 34.8491 72.18 35.1291 72.34C35.4157 72.4933 35.6424 72.7067 35.8091 72.98C35.9757 73.2533 36.0591 73.5633 36.0591 73.91V75.29C36.0591 75.6367 35.9757 75.9467 35.8091 76.22C35.6491 76.4933 35.4257 76.71 35.1391 76.87C34.8524 77.0233 34.5257 77.1 34.1591 77.1ZM34.3391 76.06C34.6124 76.06 34.8491 76 35.0491 75.88C35.2557 75.7533 35.4157 75.58 35.5291 75.36C35.6424 75.14 35.6991 74.8867 35.6991 74.6C35.6991 74.3133 35.6424 74.06 35.5291 73.84C35.4157 73.62 35.2557 73.45 35.0491 73.33C34.8491 73.2033 34.6124 73.14 34.3391 73.14C34.0724 73.14 33.8357 73.2033 33.6291 73.33C33.4291 73.45 33.2691 73.62 33.1491 73.84C33.0357 74.06 32.9791 74.3133 32.9791 74.6C32.9791 74.8867 33.0357 75.14 33.1491 75.36C33.2691 75.58 33.4291 75.7533 33.6291 75.88C33.8357 76 34.0724 76.06 34.3391 76.06ZM36.7291 77H35.6291V75.71L35.8191 74.54L35.6291 73.38V69.8H36.7291V77ZM43.2418 77V74.23C43.2418 73.91 43.1385 73.6467 42.9318 73.44C42.7318 73.2333 42.4718 73.13 42.1518 73.13C41.9385 73.13 41.7485 73.1767 41.5818 73.27C41.4151 73.3633 41.2851 73.4933 41.1918 73.66C41.0985 73.8267 41.0518 74.0167 41.0518 74.23L40.6218 73.99C40.6218 73.6233 40.7018 73.3 40.8618 73.02C41.0218 72.7333 41.2418 72.51 41.5218 72.35C41.8085 72.1833 42.1285 72.1 42.4818 72.1C42.8418 72.1 43.1618 72.1933 43.4418 72.38C43.7218 72.56 43.9418 72.7967 44.1018 73.09C44.2618 73.3767 44.3418 73.6767 44.3418 73.99V77H43.2418ZM39.9518 77V72.2H41.0518V77H39.9518ZM47.6896 77.1C47.2096 77.1 46.7763 76.9933 46.3896 76.78C46.0096 76.56 45.7063 76.26 45.4796 75.88C45.2596 75.5 45.1496 75.0733 45.1496 74.6C45.1496 74.1267 45.2596 73.7033 45.4796 73.33C45.6996 72.95 45.9963 72.65 46.3696 72.43C46.7496 72.21 47.1696 72.1 47.6296 72.1C48.0763 72.1 48.4696 72.2033 48.8096 72.41C49.1563 72.6167 49.4263 72.9 49.6196 73.26C49.8196 73.62 49.9196 74.03 49.9196 74.49C49.9196 74.57 49.9129 74.6533 49.8996 74.74C49.8929 74.82 49.8796 74.91 49.8596 75.01H45.9196V74.11H49.2896L48.8796 74.47C48.8663 74.1767 48.8096 73.93 48.7096 73.73C48.6096 73.53 48.4663 73.3767 48.2796 73.27C48.0996 73.1633 47.8763 73.11 47.6096 73.11C47.3296 73.11 47.0863 73.17 46.8796 73.29C46.6729 73.41 46.5129 73.58 46.3996 73.8C46.2863 74.0133 46.2296 74.27 46.2296 74.57C46.2296 74.87 46.2896 75.1333 46.4096 75.36C46.5296 75.5867 46.6996 75.7633 46.9196 75.89C47.1396 76.01 47.3929 76.07 47.6796 76.07C47.9263 76.07 48.1529 76.0267 48.3596 75.94C48.5729 75.8533 48.7529 75.7267 48.8996 75.56L49.5996 76.27C49.3663 76.5433 49.0829 76.75 48.7496 76.89C48.4163 77.03 48.0629 77.1 47.6896 77.1ZM52.1428 77L50.2128 72.2H51.3528L52.6528 75.69L52.3128 75.7L53.5828 72.2H54.2228L55.4928 75.7L55.1528 75.69L56.4528 72.2H57.5928L55.6628 77H55.0228L53.7228 73.68H54.0828L52.7828 77H52.1428ZM60.2038 74.15V73.15H64.6138V74.15H60.2038ZM61.9038 71.34H62.9238V75.95H61.9038V71.34Z" fill="black"/>
<line x1="19" y1="82.75" x2="360" y2="82.75" stroke="#8A887C" stroke-width="0.5"/>
<path d="M137.428 55.24C137.162 55.24 136.955 55.14 136.808 54.94C136.662 54.74 136.555 54.5067 136.488 54.24C136.435 53.96 136.408 53.72 136.408 53.52C136.408 53.2533 136.422 52.96 136.448 52.64C136.488 52.32 136.535 51.8667 136.588 51.28L137.608 41.4H140.588C141.535 41.4 142.322 41.38 142.948 41.34C143.588 41.3 144.088 41.2667 144.448 41.24C144.822 41.2 145.082 41.18 145.228 41.18C145.375 41.18 145.495 41.2067 145.588 41.26C145.695 41.3 145.748 41.42 145.748 41.62C145.748 41.86 145.688 42.1467 145.568 42.48C145.462 42.8 145.315 43.0867 145.128 43.34C144.955 43.58 144.768 43.7 144.568 43.7C144.488 43.7 144.348 43.6867 144.148 43.66C143.962 43.6333 143.748 43.6 143.508 43.56C143.282 43.5067 143.075 43.4667 142.888 43.44L140.468 43.04L139.348 55.24H137.428ZM138.848 49.22L139.108 47.42H140.068C140.642 47.42 141.175 47.4 141.668 47.36C142.162 47.32 142.575 47.28 142.908 47.24C143.255 47.2 143.468 47.18 143.548 47.18C143.708 47.18 143.822 47.2267 143.888 47.32C143.968 47.4 144.008 47.5067 144.008 47.64C144.008 47.84 143.888 48.06 143.648 48.3C143.408 48.54 143.082 48.7467 142.668 48.92C142.255 49.08 141.788 49.1667 141.268 49.18L138.848 49.22ZM146.992 55.24C146.752 55.24 146.565 55.0933 146.432 54.8C146.312 54.5067 146.252 54.18 146.252 53.82C146.252 53.3 146.312 52.4533 146.432 51.28L147.492 41.1L149.372 41.08C149.879 41.08 150.185 41.2267 150.292 41.52C150.399 41.8 150.405 42.36 150.312 43.2L149.392 51.6C149.365 51.88 149.352 52.1667 149.352 52.46C149.352 52.7533 149.372 53.04 149.412 53.32L153.372 52.4C153.585 52.36 153.785 52.32 153.972 52.28C154.159 52.2267 154.292 52.2 154.372 52.2C154.572 52.2 154.672 52.3533 154.672 52.66C154.672 52.9267 154.612 53.2467 154.492 53.62C154.372 53.98 154.205 54.3 153.992 54.58C153.779 54.86 153.525 55 153.232 55H152.432C151.432 55 150.565 55.02 149.832 55.06C149.112 55.1 148.519 55.14 148.052 55.18C147.585 55.22 147.232 55.24 146.992 55.24ZM155.199 55.28C154.839 55.28 154.659 55.1667 154.659 54.94C154.659 54.8333 154.712 54.66 154.819 54.42L160.739 42.5C160.859 42.2467 161.079 42.0133 161.399 41.8C161.719 41.5867 162.092 41.42 162.519 41.3C162.959 41.1667 163.406 41.1 163.859 41.1C164.019 41.1 164.152 41.14 164.259 41.22C164.379 41.2867 164.459 41.4467 164.499 41.7C164.726 43.2333 165.006 44.74 165.339 46.22C165.672 47.7 166.046 49.18 166.459 50.66C166.646 51.2867 166.806 51.7933 166.939 52.18C167.072 52.5667 167.206 52.86 167.339 53.06C167.486 53.26 167.612 53.4267 167.719 53.56C167.839 53.68 167.899 53.8 167.899 53.92C167.899 54.0667 167.799 54.22 167.599 54.38C167.399 54.5267 167.152 54.6667 166.859 54.8C166.566 54.9333 166.272 55.04 165.979 55.12C165.686 55.2 165.446 55.24 165.259 55.24C164.939 55.24 164.619 54.98 164.299 54.46C163.992 53.9267 163.692 52.9733 163.399 51.6L161.659 43.26L162.419 43.02L158.579 51.22C158.419 51.5933 158.299 51.9067 158.219 52.16C158.152 52.4133 158.112 52.6467 158.099 52.86C158.086 53.06 158.059 53.2933 158.019 53.56C157.992 53.8133 157.852 54.0467 157.599 54.26C157.359 54.46 157.072 54.64 156.739 54.8C156.419 54.9467 156.112 55.06 155.819 55.14C155.526 55.2333 155.319 55.28 155.199 55.28ZM157.799 51.2V49.5H165.239V51.2H157.799ZM172.639 55.26C171.453 55.26 170.479 55.0867 169.719 54.74C168.973 54.3933 168.599 53.8933 168.599 53.24C168.599 52.72 168.653 52.3467 168.759 52.12C168.866 51.88 169.019 51.76 169.219 51.76C169.353 51.76 169.533 51.8467 169.759 52.02C169.999 52.1933 170.279 52.3933 170.599 52.62C170.933 52.8333 171.299 53.0267 171.699 53.2C172.099 53.3733 172.539 53.46 173.019 53.46C173.726 53.46 174.239 53.3 174.559 52.98C174.893 52.66 175.059 52.2733 175.059 51.82C175.059 51.3667 174.953 50.9867 174.739 50.68C174.539 50.3733 174.186 50.0533 173.679 49.72L172.219 48.76C171.766 48.4667 171.339 48.1533 170.939 47.82C170.553 47.4733 170.233 47.0733 169.979 46.62C169.726 46.1667 169.599 45.6267 169.599 45C169.599 44.1733 169.819 43.4667 170.259 42.88C170.713 42.2933 171.333 41.8467 172.119 41.54C172.906 41.2333 173.806 41.08 174.819 41.08C175.673 41.08 176.333 41.1333 176.799 41.24C177.279 41.3467 177.613 41.5 177.799 41.7C177.986 41.9 178.079 42.1533 178.079 42.46C178.079 42.8333 178.019 43.16 177.899 43.44C177.793 43.72 177.653 43.86 177.479 43.86C177.346 43.86 177.193 43.8067 177.019 43.7C176.859 43.5933 176.646 43.4867 176.379 43.38C176.126 43.26 175.819 43.1533 175.459 43.06C175.113 42.9533 174.733 42.9 174.319 42.9C173.799 42.9 173.379 43.0467 173.059 43.34C172.753 43.6333 172.599 44.02 172.599 44.5C172.599 44.8733 172.706 45.2 172.919 45.48C173.133 45.76 173.473 46.02 173.939 46.26L175.259 46.94C175.846 47.2333 176.366 47.54 176.819 47.86C177.273 48.1667 177.626 48.5533 177.879 49.02C178.146 49.4867 178.279 50.0933 178.279 50.84C178.279 52.2533 177.773 53.3467 176.759 54.12C175.746 54.88 174.373 55.26 172.639 55.26ZM182.186 48.9V47H189.606V48.9H182.186ZM180.926 55.16C180.66 55.16 180.446 55.0667 180.286 54.88C180.126 54.68 180.013 54.4333 179.946 54.14C179.88 53.8467 179.846 53.5533 179.846 53.26C179.846 52.78 179.873 52.32 179.926 51.88C179.993 51.4267 180.053 50.9067 180.106 50.32L181.066 41.08H182.786C183.213 41.08 183.506 41.1933 183.666 41.42C183.84 41.6467 183.926 41.94 183.926 42.3C183.926 42.62 183.913 42.92 183.886 43.2C183.86 43.4667 183.82 43.7933 183.766 44.18C183.726 44.5533 183.673 45.0533 183.606 45.68L182.606 55.16H180.926ZM189.106 55.16C188.84 55.16 188.626 55.0667 188.466 54.88C188.306 54.68 188.193 54.4333 188.126 54.14C188.06 53.8467 188.026 53.5533 188.026 53.26C188.026 52.78 188.053 52.32 188.106 51.88C188.173 51.4267 188.233 50.9067 188.286 50.32L189.246 41.08H190.966C191.393 41.08 191.686 41.1933 191.846 41.42C192.02 41.6467 192.106 41.94 192.106 42.3C192.106 42.62 192.093 42.92 192.066 43.2C192.04 43.4667 192 43.7933 191.946 44.18C191.906 44.5533 191.853 45.0533 191.786 45.68L190.786 55.16H189.106ZM199.177 55.32C198.057 55.32 197.057 55.1 196.177 54.66C195.297 54.2067 194.603 53.5333 194.097 52.64C193.59 51.7467 193.337 50.6467 193.337 49.34C193.337 48.14 193.537 47.04 193.937 46.04C194.337 45.0267 194.897 44.1533 195.617 43.42C196.35 42.6733 197.21 42.1 198.197 41.7C199.197 41.2867 200.283 41.08 201.457 41.08C202.603 41.08 203.477 41.2067 204.077 41.46C204.677 41.7133 204.977 42.18 204.977 42.86C204.977 43.22 204.903 43.5333 204.757 43.8C204.61 44.0667 204.45 44.2 204.277 44.2C204.157 44.2 203.983 44.14 203.757 44.02C203.543 43.8867 203.343 43.7667 203.157 43.66C202.837 43.46 202.483 43.26 202.097 43.06C201.723 42.8467 201.263 42.74 200.717 42.74C199.917 42.74 199.203 43 198.577 43.52C197.963 44.0267 197.477 44.7467 197.117 45.68C196.77 46.6133 196.597 47.7133 196.597 48.98C196.597 50.0333 196.73 50.9067 196.997 51.6C197.263 52.2933 197.63 52.8067 198.097 53.14C198.563 53.4733 199.09 53.64 199.677 53.64C200.183 53.64 200.637 53.5333 201.037 53.32C201.45 53.1067 201.81 52.86 202.117 52.58C202.437 52.3 202.723 52.06 202.977 51.86C203.23 51.6467 203.47 51.54 203.697 51.54C203.87 51.54 204.01 51.5933 204.117 51.7C204.223 51.8067 204.277 51.9733 204.277 52.2C204.277 52.76 204.043 53.28 203.577 53.76C203.123 54.24 202.51 54.62 201.737 54.9C200.963 55.18 200.11 55.32 199.177 55.32ZM204.789 55.28C204.429 55.28 204.249 55.1667 204.249 54.94C204.249 54.8333 204.302 54.66 204.409 54.42L210.329 42.5C210.449 42.2467 210.669 42.0133 210.989 41.8C211.309 41.5867 211.682 41.42 212.109 41.3C212.549 41.1667 212.995 41.1 213.449 41.1C213.609 41.1 213.742 41.14 213.849 41.22C213.969 41.2867 214.049 41.4467 214.089 41.7C214.315 43.2333 214.595 44.74 214.929 46.22C215.262 47.7 215.635 49.18 216.049 50.66C216.235 51.2867 216.395 51.7933 216.529 52.18C216.662 52.5667 216.795 52.86 216.929 53.06C217.075 53.26 217.202 53.4267 217.309 53.56C217.429 53.68 217.489 53.8 217.489 53.92C217.489 54.0667 217.389 54.22 217.189 54.38C216.989 54.5267 216.742 54.6667 216.449 54.8C216.155 54.9333 215.862 55.04 215.569 55.12C215.275 55.2 215.035 55.24 214.849 55.24C214.529 55.24 214.209 54.98 213.889 54.46C213.582 53.9267 213.282 52.9733 212.989 51.6L211.249 43.26L212.009 43.02L208.169 51.22C208.009 51.5933 207.889 51.9067 207.809 52.16C207.742 52.4133 207.702 52.6467 207.689 52.86C207.675 53.06 207.649 53.2933 207.609 53.56C207.582 53.8133 207.442 54.0467 207.189 54.26C206.949 54.46 206.662 54.64 206.329 54.8C206.009 54.9467 205.702 55.06 205.409 55.14C205.115 55.2333 204.909 55.28 204.789 55.28ZM207.389 51.2V49.5H214.829V51.2H207.389ZM226.809 55.18C226.409 55.18 225.976 54.92 225.509 54.4C225.056 53.8667 224.596 53.18 224.129 52.34C223.676 51.4867 223.242 50.5733 222.829 49.6C222.776 49.48 222.716 49.36 222.649 49.24C222.596 49.1067 222.569 48.9733 222.569 48.84C222.569 48.6933 222.616 48.5933 222.709 48.54C222.802 48.4733 222.902 48.4333 223.009 48.42C223.916 48.2467 224.629 47.8867 225.149 47.34C225.669 46.7933 225.929 46.0933 225.929 45.24C225.929 44.6667 225.816 44.2133 225.589 43.88C225.362 43.5333 225.022 43.2867 224.569 43.14C224.116 42.98 223.556 42.9 222.889 42.9H222.809L221.489 55.16H219.469C219.189 55.16 218.996 55.0533 218.889 54.84C218.782 54.6267 218.729 54.34 218.729 53.98C218.729 53.7133 218.749 53.4133 218.789 53.08L220.069 41.4C220.656 41.3333 221.236 41.2867 221.809 41.26C222.396 41.22 222.976 41.2 223.549 41.2C224.709 41.2 225.709 41.3333 226.549 41.6C227.389 41.8667 228.036 42.28 228.489 42.84C228.956 43.4 229.189 44.1267 229.189 45.02C229.189 45.7267 229.042 46.3333 228.749 46.84C228.469 47.3467 228.102 47.7667 227.649 48.1C227.209 48.4333 226.736 48.7 226.229 48.9C225.722 49.1 225.249 49.2533 224.809 49.36L224.929 48.16C225.409 49.16 225.876 49.9867 226.329 50.64C226.796 51.2933 227.216 51.8133 227.589 52.2C227.962 52.5733 228.242 52.84 228.429 53C228.762 53.2533 229.009 53.4267 229.169 53.52C229.342 53.6133 229.429 53.7267 229.429 53.86C229.429 53.98 229.336 54.12 229.149 54.28C228.962 54.4267 228.722 54.5733 228.429 54.72C228.149 54.8533 227.862 54.96 227.569 55.04C227.276 55.1333 227.022 55.18 226.809 55.18ZM231.563 55.16C231.323 55.16 231.136 55.0267 231.003 54.76C230.883 54.4933 230.823 54.18 230.823 53.82C230.823 53.3 230.883 52.4533 231.003 51.28L232.003 41.4C232.723 41.3333 233.483 41.2867 234.283 41.26C235.083 41.22 235.789 41.2 236.403 41.2C238.563 41.2 240.236 41.7133 241.423 42.74C242.623 43.7533 243.223 45.1733 243.223 47C243.223 48.5467 242.889 49.9267 242.223 51.14C241.556 52.34 240.583 53.2867 239.303 53.98C238.036 54.66 236.483 55 234.643 55C234.109 55 233.569 55.0267 233.023 55.08C232.476 55.1333 231.989 55.16 231.563 55.16ZM233.963 53.36C235.243 53.36 236.329 53.1 237.223 52.58C238.116 52.0467 238.796 51.3267 239.263 50.42C239.729 49.5 239.963 48.44 239.963 47.24C239.963 45.84 239.596 44.7467 238.863 43.96C238.143 43.1733 236.983 42.78 235.383 42.78H234.883L233.983 51.68C233.969 51.9067 233.956 52.1667 233.943 52.46C233.943 52.7533 233.949 53.0533 233.963 53.36Z" fill="#B11717"/>
<g filter="url(#filter0_d_932_2)">
<path d="M19 105.508C19 101.914 21.9101 99 25.5 99H51.0667C51.6144 99 52.1463 99.0678 52.6545 99.1956C53.8623 99.4156 55.0216 99.9801 55.9756 100.893L58.5325 103.339H90.5C94.0899 103.339 97 106.253 97 109.847V156.492C97 160.086 94.0899 163 90.5 163H25.5C21.9101 163 19 160.086 19 156.492V105.508Z" fill="#E1E0E0"/>
<path d="M92.0405 112.284C92.0403 112.392 92.0023 112.484 91.9263 112.561C91.8504 112.638 91.758 112.675 91.6491 112.674C91.5426 112.675 91.4515 112.637 91.3759 112.56C91.3003 112.483 91.2626 112.39 91.2629 112.283C91.2631 112.178 91.3011 112.088 91.377 112.011C91.453 111.933 91.5442 111.894 91.6507 111.893C91.7229 111.894 91.7886 111.913 91.8477 111.95C91.9068 111.986 91.9541 112.033 91.9895 112.092C92.0237 112.15 92.0407 112.214 92.0405 112.284ZM92.0435 110.834C92.0433 110.942 92.0052 111.034 91.9293 111.111C91.8534 111.188 91.761 111.225 91.6521 111.224C91.5456 111.225 91.4545 111.187 91.3789 111.11C91.3033 111.033 91.2656 110.94 91.2658 110.832C91.2661 110.728 91.3041 110.638 91.38 110.561C91.456 110.483 91.5472 110.444 91.6537 110.443C91.7259 110.444 91.7916 110.463 91.8507 110.5C91.9098 110.535 91.9571 110.583 91.9924 110.642C92.0266 110.7 92.0437 110.764 92.0435 110.834ZM92.0465 109.384C92.0463 109.492 92.0082 109.584 91.9323 109.661C91.8564 109.737 91.764 109.775 91.6551 109.774C91.5486 109.775 91.4575 109.737 91.3819 109.659C91.3063 109.582 91.2686 109.49 91.2688 109.382C91.269 109.278 91.3071 109.188 91.383 109.111C91.4589 109.033 91.5502 108.993 91.6567 108.992C91.7289 108.994 91.7946 109.013 91.8537 109.05C91.9128 109.085 91.96 109.133 91.9954 109.192C92.0296 109.25 92.0467 109.314 92.0465 109.384Z" fill="black"/>
<path d="M41.4068 139V129.2H43.0168V139H41.4068ZM42.5128 134.8V133.33H47.4968V134.8H42.5128ZM42.5128 130.67V129.2H47.7348V130.67H42.5128ZM49.1265 139V132.28H50.6665V139H49.1265ZM50.6665 135.262L50.1345 134.996C50.1345 134.147 50.3211 133.461 50.6945 132.938C51.0771 132.406 51.6511 132.14 52.4165 132.14C52.7525 132.14 53.0558 132.201 53.3265 132.322C53.5971 132.443 53.8491 132.639 54.0825 132.91L53.0745 133.946C52.9531 133.815 52.8178 133.722 52.6685 133.666C52.5191 133.61 52.3465 133.582 52.1505 133.582C51.7211 133.582 51.3665 133.717 51.0865 133.988C50.8065 134.259 50.6665 134.683 50.6665 135.262ZM57.5856 139.14C57.0163 139.14 56.5076 139.014 56.0596 138.762C55.621 138.51 55.2756 138.165 55.0236 137.726C54.781 137.278 54.6596 136.765 54.6596 136.186V132.28H56.1996V136.116C56.1996 136.443 56.251 136.723 56.3536 136.956C56.4656 137.18 56.6243 137.353 56.8296 137.474C57.0443 137.595 57.2963 137.656 57.5856 137.656C58.0336 137.656 58.3743 137.525 58.6076 137.264C58.8503 136.993 58.9716 136.611 58.9716 136.116V132.28H60.5116V136.186C60.5116 136.774 60.3856 137.292 60.1336 137.74C59.891 138.179 59.5503 138.524 59.1116 138.776C58.673 139.019 58.1643 139.14 57.5856 139.14ZM62.0741 139V132.28H63.6141V139H62.0741ZM62.8441 131.048C62.5827 131.048 62.3634 130.959 62.1861 130.782C62.0181 130.605 61.9341 130.385 61.9341 130.124C61.9341 129.863 62.0181 129.643 62.1861 129.466C62.3634 129.289 62.5827 129.2 62.8441 129.2C63.1147 129.2 63.3341 129.289 63.5021 129.466C63.6701 129.643 63.7541 129.863 63.7541 130.124C63.7541 130.385 63.6701 130.605 63.5021 130.782C63.3341 130.959 63.1147 131.048 62.8441 131.048ZM66.3633 139V129.48H67.9033V139H66.3633ZM64.7533 133.68V132.28H69.5133V133.68H64.7533ZM72.6936 139.14C72.3203 139.14 71.9609 139.093 71.6156 139C71.2703 138.897 70.9529 138.757 70.6636 138.58C70.3743 138.393 70.1223 138.169 69.9076 137.908L70.8876 136.928C71.1209 137.199 71.3869 137.404 71.6856 137.544C71.9936 137.675 72.3389 137.74 72.7216 137.74C73.0669 137.74 73.3283 137.689 73.5056 137.586C73.6829 137.483 73.7716 137.334 73.7716 137.138C73.7716 136.933 73.6876 136.774 73.5196 136.662C73.3516 136.55 73.1323 136.457 72.8616 136.382C72.6003 136.298 72.3203 136.214 72.0216 136.13C71.7323 136.046 71.4523 135.934 71.1816 135.794C70.9203 135.645 70.7056 135.444 70.5376 135.192C70.3696 134.94 70.2856 134.613 70.2856 134.212C70.2856 133.783 70.3836 133.414 70.5796 133.106C70.7849 132.798 71.0696 132.56 71.4336 132.392C71.8069 132.224 72.2503 132.14 72.7636 132.14C73.3049 132.14 73.7809 132.238 74.1916 132.434C74.6116 132.621 74.9616 132.905 75.2416 133.288L74.2616 134.268C74.0656 134.025 73.8416 133.843 73.5896 133.722C73.3376 133.601 73.0483 133.54 72.7216 133.54C72.4136 133.54 72.1756 133.587 72.0076 133.68C71.8396 133.773 71.7556 133.909 71.7556 134.086C71.7556 134.273 71.8396 134.417 72.0076 134.52C72.1756 134.623 72.3903 134.711 72.6516 134.786C72.9223 134.861 73.2023 134.945 73.4916 135.038C73.7903 135.122 74.0703 135.243 74.3316 135.402C74.6023 135.551 74.8216 135.757 74.9896 136.018C75.1576 136.27 75.2416 136.601 75.2416 137.012C75.2416 137.665 75.0129 138.183 74.5556 138.566C74.0983 138.949 73.4776 139.14 72.6936 139.14Z" fill="black"/>
</g>
<defs>
<filter id="filter0_d_932_2" x="15" y="99" width="86" height="72" filterUnits="userSpaceOnUse" color-interpolation-filters="sRGB">
<feFlood flood-opacity="0" result="BackgroundImageFix"/>
<feColorMatrix in="SourceAlpha" type="matrix" values="0 0 0 0 0 0 0 0 0 0 0 0 0 0 0 0 0 0 127 0" result="hardAlpha"/>
<feOffset dy="4"/>
<feGaussianBlur stdDeviation="2"/>
<feComposite in2="hardAlpha" operator="out"/>
<feColorMatrix type="matrix" values="0 0 0 0 0 0 0 0 0 0 0 0 0 0 0 0 0 0 0.25 0"/>
<feBlend mode="normal" in2="BackgroundImageFix" result="effect1_dropShadow_932_2"/>
<feBlend mode="normal" in="SourceGraphic" in2="effect1_dropShadow_932_2" result="shape"/>
</filter>
</defs>
</svg>
