
<svg width="48" height="46" viewBox="0 0 49 48" fill="none" xmlns="http://www.w3.org/2000/svg">
<ellipse cx="24.5" cy="24" rx="24.5" ry="24" fill="#B11717"/>
<path d="M21.5 30.6335V30.3636C21.5189 28.6023 21.6941 27.2008 22.0256 26.1591C22.3665 25.1174 22.8494 24.2746 23.4744 23.6307C24.0994 22.9867 24.8523 22.3996 25.733 21.8693C26.3011 21.5095 26.8125 21.107 27.267 20.6619C27.7216 20.2169 28.0814 19.7055 28.3466 19.1278C28.6117 18.5502 28.7443 17.911 28.7443 17.2102C28.7443 16.3674 28.5455 15.6383 28.1477 15.0227C27.75 14.4072 27.2197 13.9337 26.5568 13.6023C25.9034 13.2614 25.1742 13.0909 24.3693 13.0909C23.6402 13.0909 22.9441 13.2424 22.2812 13.5455C21.6184 13.8485 21.0691 14.322 20.6335 14.9659C20.1979 15.6004 19.947 16.4195 19.8807 17.4233H15.5625C15.6288 15.7188 16.0597 14.2794 16.8551 13.1051C17.6506 11.9214 18.7017 11.0265 20.0085 10.4205C21.3248 9.81439 22.7784 9.51136 24.3693 9.51136C26.1117 9.51136 27.6364 9.83807 28.9432 10.4915C30.25 11.1354 31.2633 12.0398 31.983 13.2045C32.7121 14.3598 33.0767 15.7093 33.0767 17.2528C33.0767 18.3134 32.911 19.2699 32.5795 20.1222C32.2481 20.965 31.7746 21.7178 31.1591 22.3807C30.553 23.0436 29.8239 23.6307 28.9716 24.142C28.1667 24.6439 27.5133 25.1648 27.0114 25.7045C26.5189 26.2443 26.1591 26.8835 25.9318 27.6222C25.7045 28.3608 25.5814 29.2746 25.5625 30.3636V30.6335H21.5ZM23.6449 39.2699C22.8684 39.2699 22.2008 38.9953 21.642 38.446C21.0833 37.8873 20.804 37.215 20.804 36.429C20.804 35.6525 21.0833 34.9896 21.642 34.4403C22.2008 33.8816 22.8684 33.6023 23.6449 33.6023C24.4119 33.6023 25.0748 33.8816 25.6335 34.4403C26.2017 34.9896 26.4858 35.6525 26.4858 36.429C26.4858 36.9498 26.3532 37.428 26.0881 37.8636C25.8324 38.2898 25.4915 38.6307 25.0653 38.8864C24.6392 39.142 24.1657 39.2699 23.6449 39.2699Z" fill="white"/>
</svg>
