<svg width="466" height="131" viewBox="0 0 466 131" fill="none" xmlns="http://www.w3.org/2000/svg">
<rect width="26.3514" height="130.959" fill="#1469B6"/>
<rect x="439.191" width="26.3514" height="130.959" fill="#1569B6"/>
<rect x="13.5742" y="8.78418" width="439.19" height="113.391" fill="#4098E9"/>
<path fill-rule="evenodd" clip-rule="evenodd" d="M30.3506 20.7617H52.702V16.7617H26.3506V20.7617V61.4867H30.3506V20.7617ZM52.7031 27.9409V17.5674L56.7031 17.5674V29.5453H55.8966V31.9409L40.7246 31.9409V27.9409L52.7031 27.9409ZM26.3506 68.6735V109.398V113.398H52.702V109.398H30.3506V68.6735H26.3506ZM52.7031 102.219V112.593H56.7031V100.615H55.8966V98.2188H40.7246V102.219H52.7031ZM439.191 68.6735V109.398V113.398H412.84V109.398H435.191V68.6735H439.191ZM412.839 102.219V112.593H408.839V100.615H409.645V98.2188H424.817V102.219H412.839ZM439.191 61.4867V20.7617V16.7617H412.84V20.7617H435.191V61.4867H439.191ZM412.839 27.9409V17.5674L408.839 17.5674V29.5453H409.645V31.9409L424.817 31.9409V27.9409L412.839 27.9409Z" fill="white"/>
<rect x="312" y="21.5352" width="46.4878" height="65.2617" rx="9" transform="rotate(-5.59864 312 21.5352)" fill="#4098E9"/>
<rect x="313.093" y="22.4328" width="44.4878" height="63.2617" rx="8" transform="rotate(-5.59864 313.093 22.4328)" stroke="white" stroke-opacity="0.6" stroke-width="2"/>
<rect x="328.999" y="25.3701" width="46.4878" height="65.2617" rx="9" transform="rotate(11.5189 328.999 25.3701)" fill="#4098E9"/>
<rect x="329.779" y="26.5497" width="44.4878" height="63.2617" rx="8" transform="rotate(11.5189 329.779 26.5497)" stroke="white" stroke-opacity="0.6" stroke-width="2"/>
<rect x="345.612" y="33.416" width="46.4878" height="65.2617" rx="9" transform="rotate(28.7933 345.612 33.416)" fill="#4098E9"/>
<rect x="346.007" y="34.774" width="44.4878" height="63.2617" rx="8" transform="rotate(28.7933 346.007 34.774)" stroke="white" stroke-opacity="0.6" stroke-width="2"/>
<path d="M118.025 80V51.88H123.465V80H118.025ZM122.025 68.48V63.64H136.185V68.48H122.025ZM122.025 56.68V51.88H136.865V56.68H122.025ZM141.15 80V51.88H146.59V80H141.15ZM145.15 80V75.16H159.47V80H145.15ZM160.437 80L171.757 51.88H176.197L187.477 80H181.677L172.957 56.92H174.957L166.117 80H160.437ZM166.437 74.76V70.2H181.557V74.76H166.437ZM198.372 80.4C196.105 80.4 194.159 80.0133 192.532 79.24C190.932 78.4667 189.479 77.3067 188.172 75.76L191.772 72.16C192.599 73.2533 193.559 74.1067 194.652 74.72C195.745 75.3067 197.079 75.6 198.652 75.6C200.065 75.6 201.185 75.32 202.012 74.76C202.865 74.2 203.292 73.4267 203.292 72.44C203.292 71.5867 203.052 70.8933 202.572 70.36C202.092 69.8267 201.452 69.3733 200.652 69C199.879 68.6267 199.012 68.2933 198.052 68C197.119 67.68 196.172 67.32 195.212 66.92C194.279 66.52 193.412 66.0267 192.612 65.44C191.839 64.8267 191.212 64.0533 190.732 63.12C190.252 62.16 190.012 60.96 190.012 59.52C190.012 57.8133 190.425 56.36 191.252 55.16C192.079 53.96 193.212 53.04 194.652 52.4C196.092 51.76 197.719 51.44 199.532 51.44C201.452 51.44 203.185 51.8 204.732 52.52C206.279 53.24 207.545 54.1733 208.532 55.32L204.932 58.92C204.105 58.0133 203.252 57.3467 202.372 56.92C201.519 56.4933 200.545 56.28 199.452 56.28C198.199 56.28 197.212 56.52 196.492 57C195.772 57.48 195.412 58.1733 195.412 59.08C195.412 59.8533 195.652 60.48 196.132 60.96C196.612 61.44 197.239 61.8533 198.012 62.2C198.812 62.5467 199.679 62.88 200.612 63.2C201.572 63.52 202.519 63.88 203.452 64.28C204.412 64.68 205.279 65.2 206.052 65.84C206.852 66.48 207.492 67.3067 207.972 68.32C208.452 69.3067 208.692 70.5333 208.692 72C208.692 74.6133 207.772 76.6667 205.932 78.16C204.092 79.6533 201.572 80.4 198.372 80.4ZM212.985 80V51.88H218.425V80H212.985ZM230.625 80V51.88H236.065V80H230.625ZM216.425 67.88V63.08H232.145V67.88H216.425ZM254.854 80.4C252.8 80.4 250.894 80.04 249.134 79.32C247.374 78.5733 245.827 77.5467 244.494 76.24C243.187 74.9067 242.174 73.36 241.454 71.6C240.76 69.84 240.414 67.9467 240.414 65.92C240.414 63.8933 240.76 62 241.454 60.24C242.174 58.48 243.187 56.9467 244.494 55.64C245.827 54.3333 247.36 53.3067 249.094 52.56C250.854 51.8133 252.774 51.44 254.854 51.44C257.094 51.44 259.067 51.8133 260.774 52.56C262.48 53.28 263.987 54.28 265.294 55.56L261.614 59.24C260.84 58.3867 259.894 57.72 258.774 57.24C257.654 56.76 256.347 56.52 254.854 56.52C253.547 56.52 252.347 56.7467 251.254 57.2C250.187 57.6267 249.254 58.2667 248.454 59.12C247.654 59.9467 247.04 60.9467 246.614 62.12C246.187 63.2667 245.974 64.5333 245.974 65.92C245.974 67.3333 246.187 68.6133 246.614 69.76C247.04 70.9067 247.654 71.9067 248.454 72.76C249.254 73.5867 250.187 74.2267 251.254 74.68C252.347 75.1333 253.547 75.36 254.854 75.36C256.427 75.36 257.774 75.12 258.894 74.64C260.04 74.16 261 73.48 261.774 72.6L265.454 76.28C264.147 77.5867 262.627 78.6 260.894 79.32C259.16 80.04 257.147 80.4 254.854 80.4ZM266.452 80L277.772 51.88H282.212L293.492 80H287.692L278.972 56.92H280.972L272.132 80H266.452ZM272.452 74.76V70.2H287.572V74.76H272.452ZM300.814 68.24V64H307.334C308.667 64 309.694 63.6667 310.414 63C311.16 62.3067 311.534 61.36 311.534 60.16C311.534 59.0667 311.16 58.16 310.414 57.44C309.694 56.6933 308.667 56.32 307.334 56.32H300.814V51.88H307.814C309.627 51.88 311.214 52.24 312.574 52.96C313.96 53.6533 315.027 54.6133 315.774 55.84C316.547 57.0667 316.934 58.48 316.934 60.08C316.934 61.7333 316.547 63.1733 315.774 64.4C315.027 65.6 313.96 66.5467 312.574 67.24C311.187 67.9067 309.574 68.24 307.734 68.24H300.814ZM296.814 80V51.88H302.254V80H296.814ZM312.174 80L302.894 67.84L307.894 66.28L318.774 80H312.174ZM325.573 80V75.16H332.733C334.546 75.16 336.133 74.7867 337.493 74.04C338.853 73.2667 339.906 72.1867 340.653 70.8C341.426 69.4133 341.813 67.7733 341.813 65.88C341.813 64.04 341.426 62.44 340.653 61.08C339.879 59.6933 338.813 58.6267 337.453 57.88C336.093 57.1067 334.519 56.72 332.733 56.72H325.453V51.88H332.813C334.893 51.88 336.813 52.2267 338.573 52.92C340.359 53.6133 341.906 54.6 343.213 55.88C344.546 57.1333 345.573 58.6133 346.293 60.32C347.039 62.0267 347.413 63.8933 347.413 65.92C347.413 67.9467 347.039 69.8267 346.293 71.56C345.573 73.2667 344.559 74.76 343.253 76.04C341.946 77.2933 340.399 78.2667 338.613 78.96C336.853 79.6533 334.946 80 332.893 80H325.573ZM321.853 80V51.88H327.293V80H321.853Z" fill="white"/>
</svg>
