<svg width="466" height="131" viewBox="0 0 466 131" fill="none" xmlns="http://www.w3.org/2000/svg">
<rect width="26.3514" height="130.959" fill="#CE8800"/>
<rect x="439.191" width="26.3514" height="130.959" fill="#CE8800"/>
<rect x="13.5742" y="8.78418" width="439.19" height="113.391" fill="#FEA905"/>
<path fill-rule="evenodd" clip-rule="evenodd" d="M52.7031 27.9408L52.7031 16.7529H56.7031L56.7031 32H52.7031V31.9408L40.7246 31.9408V27.9408L52.7031 27.9408ZM30.3506 20.7616H52.702V16.7616H26.3506V20.7616V61.4865H30.3506V20.7616ZM26.3506 68.6733V109.398V113.398H52.702V109.398H30.3506V68.6733H26.3506ZM52.7031 102.219V113.278H56.7031V98.2218H55.8966V98.2186H40.7246V102.219H52.7031ZM439.191 68.6733V109.398V113.398H412.84V109.398H435.191V68.6733H439.191ZM412 112.593V113.291H408V112.593V100.615V98.2057H412V98.2186H424.817V102.219H412V112.593ZM439.191 61.4865V20.7616V16.7616H412.84V20.7616H435.191V61.4865H439.191ZM412.839 17.5672V16.7698L408.839 16.7698V17.5672V29.5451V31.855L409.645 31.855V31.9408L424.817 31.9408V27.9408L412.839 27.9408V17.5672Z" fill="white"/>
<path d="M171.289 72.862V66.424H180.743C181.98 66.424 183.101 66.1727 184.107 65.67C185.112 65.1673 185.905 64.452 186.485 63.524C187.065 62.5573 187.355 61.3973 187.355 60.044C187.355 58.7293 187.065 57.5887 186.485 56.622C185.905 55.6553 185.112 54.9207 184.107 54.418C183.101 53.9153 181.98 53.664 180.743 53.664H171.289V47.226H181.555C184.145 47.226 186.465 47.748 188.515 48.792C190.603 49.836 192.246 51.3247 193.445 53.258C194.643 55.1527 195.243 57.4147 195.243 60.044C195.243 62.6733 194.643 64.9547 193.445 66.888C192.246 68.7827 190.603 70.252 188.515 71.296C186.465 72.34 184.145 72.862 181.555 72.862H171.289ZM165.489 88V47.226H173.377V88H165.489ZM200.832 88V47.226H208.72V88H200.832ZM206.632 88V80.982H227.396V88H206.632ZM228.799 88L245.213 47.226H251.651L268.007 88H259.597L246.953 54.534H249.853L237.035 88H228.799ZM237.499 80.402V73.79H259.423V80.402H237.499ZM280.142 72.282L264.366 47.226H273.472L285.71 67.294H280.49L292.728 47.226H301.718L285.768 72.282H280.142ZM279.098 88V68.048H287.044V88H279.098Z" fill="white"/>
</svg>
