<svg width="28" height="28" viewBox="0 0 28 28" fill="none" xmlns="http://www.w3.org/2000/svg">
<path d="M0.688814 23.9853C-0.229605 24.9037 -0.229605 26.3927 0.688814 27.3112C1.60723 28.2296 3.09628 28.2296 4.0147 27.3112L14 17.3259L23.9853 27.3112C24.9037 28.2296 26.3928 28.2296 27.3112 27.3112C28.2296 26.3928 28.2296 24.9037 27.3112 23.9853L17.3259 14L27.3112 4.0147C28.2296 3.09628 28.2296 1.60723 27.3112 0.688813C26.3928 -0.229604 24.9037 -0.229605 23.9853 0.688813L14 10.6741L4.0147 0.688845C3.09628 -0.229572 1.60723 -0.229572 0.688814 0.688845C-0.229605 1.60726 -0.229605 3.09631 0.688814 4.01473L10.6741 14L0.688814 23.9853Z" fill="#ABABAB"/>
</svg>
