<svg width="67" height="56" viewBox="0 0 67 56" fill="none" xmlns="http://www.w3.org/2000/svg">
<rect width="67" height="56" rx="10" fill="#FEA905"/>
<path d="M26.4998 37.096C28.3157 39.3247 30.7818 40.8119 33.4871 41.3096C36.1924 41.8074 38.9735 41.2857 41.3668 39.8315C43.7601 38.3772 45.621 36.0783 46.6394 33.3179C47.6578 30.5575 47.7722 27.5024 46.9635 24.6617C46.1547 21.8211 44.4717 19.3665 42.195 17.7071C39.9183 16.0477 37.1853 15.2837 34.4517 15.5425C31.7181 15.8014 29.1489 17.0673 27.1724 19.1294C25.1959 21.1915 23.9315 23.9252 23.5898 26.8747" stroke="white" stroke-width="4" stroke-linecap="round" stroke-linejoin="round"/>
<path d="M19 22L22 30.125L29.5 26.875" stroke="white" stroke-width="4" stroke-linecap="round" stroke-linejoin="round"/>
</svg>
