<svg width="192" height="51" viewBox="0 0 192 51" fill="none" xmlns="http://www.w3.org/2000/svg">
<path d="M32.3272 6.61395C30.8211 3.79131 26.7752 3.79131 25.2691 6.61395L20.8686 14.861C20.2622 15.9975 19.1457 16.7724 17.8689 16.9428L8.57751 18.1834C5.19722 18.6347 3.89588 22.8378 6.42977 25.1202L12.7353 30.8C13.769 31.7311 14.2447 33.1324 13.9914 34.5004L12.4486 42.8313C11.8513 46.057 15.1773 48.5907 18.1286 47.158L27.0514 42.8267C28.1543 42.2913 29.4419 42.2913 30.5449 42.8267L39.4677 47.158C42.419 48.5907 45.745 46.057 45.1476 42.8313L43.6049 34.5004C43.3516 33.1324 43.8273 31.7311 44.861 30.8L51.1665 25.1202C53.7004 22.8378 52.399 18.6347 49.0188 18.1834L39.7273 16.9428C38.4506 16.7724 37.334 15.9975 36.7276 14.861L32.3272 6.61395Z" fill="#FEA905"/>
<path d="M99.5229 6.61395C98.0168 3.79131 93.9709 3.79131 92.4648 6.61395L88.0643 14.861C87.4579 15.9975 86.3414 16.7724 85.0646 16.9428L75.7732 18.1834C72.3929 18.6347 71.0916 22.8378 73.6254 25.1202L79.931 30.8C80.9647 31.7311 81.4403 33.1324 81.187 34.5004L79.6443 42.8313C79.047 46.057 82.373 48.5907 85.3242 47.158L94.247 42.8267C95.35 42.2913 96.6376 42.2913 97.7406 42.8267L106.663 47.158C109.615 48.5907 112.941 46.057 112.343 42.8313L110.801 34.5004C110.547 33.1324 111.023 31.7311 112.057 30.8L118.362 25.1202C120.896 22.8378 119.595 18.6347 116.214 18.1834L106.923 16.9428C105.646 16.7724 104.53 15.9975 103.923 14.861L99.5229 6.61395Z" fill="#FEA905"/>
<path d="M166.718 6.61395C165.212 3.79131 161.166 3.79131 159.66 6.61395L155.26 14.861C154.653 15.9975 153.537 16.7724 152.26 16.9428L142.969 18.1834C139.588 18.6347 138.287 22.8378 140.821 25.1202L147.127 30.8C148.16 31.7311 148.636 33.1324 148.383 34.5004L146.84 42.8313C146.243 46.057 149.569 48.5907 152.52 47.158L161.443 42.8267C162.546 42.2913 163.833 42.2913 164.936 42.8267L173.859 47.158C176.81 48.5907 180.136 46.057 179.539 42.8313L177.996 34.5004C177.743 33.1324 178.218 31.7311 179.252 30.8L185.558 25.1202C188.092 22.8378 186.79 18.6347 183.41 18.1834L174.119 16.9428C172.842 16.7724 171.725 15.9975 171.119 14.861L166.718 6.61395Z" fill="#D9D9D9"/>
</svg>
