<svg width="192" height="52" viewBox="0 0 192 52" fill="none" xmlns="http://www.w3.org/2000/svg">
<path d="M32.3272 7.05536C30.8211 4.23272 26.7752 4.23272 25.2691 7.05535L20.8686 15.3024C20.2622 16.4389 19.1457 17.2138 17.8689 17.3842L8.57751 18.6248C5.19722 19.0761 3.89588 23.2792 6.42977 25.5616L12.7353 31.2414C13.769 32.1725 14.2447 33.5738 13.9914 34.9418L12.4486 43.2727C11.8513 46.4984 15.1773 49.0321 18.1286 47.5994L27.0514 43.2681C28.1543 42.7327 29.4419 42.7327 30.5449 43.2681L39.4677 47.5994C42.419 49.0321 45.745 46.4984 45.1476 43.2727L43.6049 34.9418C43.3516 33.5738 43.8273 32.1725 44.861 31.2414L51.1665 25.5616C53.7004 23.2792 52.399 19.0761 49.0188 18.6248L39.7273 17.3842C38.4506 17.2138 37.334 16.4389 36.7276 15.3024L32.3272 7.05536Z" fill="#FEA905"/>
<path d="M99.5229 7.05536C98.0168 4.23272 93.9709 4.23272 92.4648 7.05535L88.0643 15.3024C87.4579 16.4389 86.3414 17.2138 85.0646 17.3842L75.7732 18.6248C72.3929 19.0761 71.0916 23.2792 73.6254 25.5616L79.931 31.2414C80.9647 32.1725 81.4403 33.5738 81.187 34.9418L79.6443 43.2727C79.047 46.4984 82.373 49.0321 85.3242 47.5994L94.247 43.2681C95.35 42.7327 96.6376 42.7327 97.7406 43.2681L106.663 47.5994C109.615 49.0321 112.941 46.4984 112.343 43.2727L110.801 34.9418C110.547 33.5738 111.023 32.1725 112.057 31.2414L118.362 25.5616C120.896 23.2792 119.595 19.0761 116.214 18.6248L106.923 17.3842C105.646 17.2138 104.53 16.4389 103.923 15.3024L99.5229 7.05536Z" fill="#FEA905"/>
<path d="M166.719 7.05536C165.212 4.23272 161.167 4.23272 159.66 7.05535L155.26 15.3024C154.654 16.4389 153.537 17.2138 152.26 17.3842L142.969 18.6248C139.589 19.0761 138.287 23.2792 140.821 25.5616L147.127 31.2414C148.16 32.1725 148.636 33.5738 148.383 34.9418L146.84 43.2727C146.243 46.4984 149.569 49.0321 152.52 47.5994L161.443 43.2681C162.546 42.7327 163.833 42.7327 164.936 43.2681L173.859 47.5994C176.81 49.0321 180.136 46.4984 179.539 43.2727L177.996 34.9418C177.743 33.5738 178.219 32.1725 179.252 31.2414L185.558 25.5616C188.092 23.2792 186.79 19.0761 183.41 18.6248L174.119 17.3842C172.842 17.2138 171.725 16.4389 171.119 15.3024L166.719 7.05536Z" fill="#FEA905"/>
</svg>
