<svg width="22" height="22" viewBox="0 0 22 22" fill="none" xmlns="http://www.w3.org/2000/svg">
<path fill-rule="evenodd" clip-rule="evenodd" d="M3.41421 0.585786C2.63316 -0.195262 1.36684 -0.195262 0.585786 0.585786C-0.195262 1.36684 -0.195262 2.63316 0.585786 3.41421L8.06305 10.8915L0.585786 18.3687C-0.195262 19.1498 -0.195262 20.4161 0.585786 21.1972C1.36684 21.9782 2.63316 21.9782 3.41421 21.1972L10.8915 13.7199L18.3687 21.1971C19.1497 21.9782 20.4161 21.9782 21.1971 21.1971C21.9782 20.4161 21.9782 19.1497 21.1971 18.3687L13.7199 10.8915L21.1971 3.41428C21.9782 2.63323 21.9782 1.3669 21.1971 0.585851C20.4161 -0.195198 19.1497 -0.195198 18.3687 0.585851L10.8915 8.06305L3.41421 0.585786Z" fill="#ABABAB"/>
</svg>
