<svg width="54" height="52" viewBox="0 0 54 52" fill="none" xmlns="http://www.w3.org/2000/svg">
<path d="M50.0395 20.4503H48.3522C47.7817 20.4112 47.2346 20.2165 46.7749 19.8889C46.3152 19.5613 45.9618 19.1144 45.7562 18.6005V18.5005C45.5098 17.9814 45.4325 17.4026 45.5344 16.8403C45.6364 16.278 45.9128 15.7587 46.3273 15.3507L47.5215 14.2008C48.0574 13.673 48.3575 12.9641 48.3575 12.226C48.3575 11.4878 48.0574 10.7789 47.5215 10.2511L43.29 6.3514C42.7419 5.83532 42.0058 5.54636 41.2392 5.54636C40.4727 5.54636 39.7365 5.83532 39.1884 6.3514L37.9943 7.50131C37.5728 7.89532 37.0381 8.15839 36.4596 8.25644C35.881 8.3545 35.2852 8.28302 34.7493 8.05127C34.2157 7.85327 33.7516 7.51301 33.4114 7.07032C33.0712 6.62762 32.869 6.10079 32.8283 5.55146V3.77659C32.8286 3.40363 32.7507 3.03445 32.5995 2.69111C32.4482 2.34777 32.2266 2.03732 31.948 1.7783C31.6693 1.51929 31.3393 1.31703 30.9776 1.18361C30.6159 1.0502 30.23 0.988362 29.843 1.0018H24.0799C23.3157 1.0018 22.5828 1.29415 22.0424 1.81452C21.502 2.33489 21.1984 3.04067 21.1984 3.77659V5.40147C21.1578 5.9508 20.9555 6.47763 20.6154 6.92033C20.2752 7.36302 19.8111 7.70328 19.2774 7.90128H19.1736C18.6526 8.15247 18.0657 8.24857 17.4878 8.17734C16.9099 8.1061 16.3671 7.87076 15.9286 7.50131L14.7345 6.3514C14.1864 5.83532 13.4503 5.54636 12.6837 5.54636C11.9171 5.54636 11.181 5.83532 10.6329 6.3514L6.55722 10.2761C6.0213 10.8039 5.72122 11.5128 5.72122 12.251C5.72122 12.9891 6.0213 13.698 6.55722 14.2258L7.75136 15.3757C8.16053 15.7816 8.43371 16.2965 8.53554 16.8536C8.63736 17.4107 8.56314 17.9845 8.32248 18.5005C8.11685 19.0144 7.76351 19.4613 7.30379 19.7889C6.84407 20.1165 6.29698 20.3112 5.72652 20.3503H3.88339C3.49608 20.3501 3.1127 20.4251 2.75615 20.5707C2.39961 20.7164 2.07721 20.9297 1.80824 21.1981C1.53926 21.4664 1.32922 21.7843 1.19068 22.1325C1.05213 22.4808 0.987915 22.8524 1.00187 23.2251V28.7747C1.00187 29.5106 1.30546 30.2164 1.84585 30.7368C2.38624 31.2572 3.11916 31.5495 3.88339 31.5495H5.57076C6.14122 31.5886 6.68831 31.7834 7.14803 32.111C7.60775 32.4386 7.96109 32.8855 8.16672 33.3994C8.41312 33.9185 8.49044 34.4973 8.3885 35.0595C8.28655 35.6218 8.01011 36.1411 7.59561 36.5491L6.40147 37.699C5.86554 38.2269 5.56546 38.9357 5.56546 39.6739C5.56546 40.4121 5.86554 41.1209 6.40147 41.6487L10.4771 45.5735C11.0252 46.0895 11.7614 46.3785 12.5279 46.3785C13.2945 46.3785 14.0306 46.0895 14.5787 45.5735L15.7729 44.4235C16.2159 44.0101 16.7829 43.7416 17.3934 43.6564C18.004 43.5711 18.6269 43.6733 19.1736 43.9486C19.7072 44.1466 20.1713 44.4868 20.5115 44.9295C20.8517 45.3722 21.054 45.8991 21.0946 46.4484V48.0733C21.0726 48.4586 21.1344 48.8442 21.276 49.2053C21.4176 49.5664 21.6358 49.895 21.9168 50.1703C22.1977 50.4456 22.5352 50.6613 22.9077 50.8039C23.2802 50.9464 23.6794 51.0125 24.0799 50.998H29.843C30.6072 50.998 31.3401 50.7057 31.8805 50.1853C32.4209 49.665 32.7245 48.9592 32.7245 48.2233V46.5984C32.7651 46.049 32.9674 45.5222 33.3076 45.0795C33.6478 44.6368 34.1118 44.2966 34.6455 44.0986C35.1846 43.8613 35.7856 43.7868 36.3695 43.885C36.9534 43.9832 37.4927 44.2494 37.9164 44.6485L39.1105 45.7984C39.6587 46.3145 40.3948 46.6035 41.1614 46.6035C41.9279 46.6035 42.6641 46.3145 43.2122 45.7984L47.2878 41.8737C47.8237 41.3459 48.1238 40.6371 48.1238 39.8989C48.1238 39.1607 47.8237 38.4518 47.2878 37.924L46.0937 36.7741C45.6643 36.3475 45.3855 35.8015 45.297 35.2136C45.2084 34.6257 45.3146 34.0258 45.6004 33.4994C45.8061 32.9855 46.1594 32.5386 46.6191 32.211C47.0789 31.8834 47.6259 31.6886 48.1964 31.6495H49.8838C50.284 31.6706 50.6844 31.6111 51.0593 31.4748C51.4343 31.3385 51.7756 31.1283 52.0615 30.8578C52.3473 30.5872 52.5714 30.2622 52.7194 29.9036C52.8674 29.5449 52.9361 29.1604 52.921 28.7747V23.2251C52.921 22.4892 52.6175 21.7834 52.0771 21.2631C51.5367 20.7427 50.8038 20.4503 50.0395 20.4503ZM26.9615 35.9992C24.9077 35.9992 22.9001 35.4127 21.1925 34.314C19.4849 33.2153 18.154 31.6536 17.368 29.8265C16.5821 27.9993 16.3765 25.9888 16.7771 24.0492C17.1778 22.1095 18.1668 20.3278 19.619 18.9294C21.0712 17.531 22.9214 16.5786 24.9357 16.1928C26.9499 15.807 29.0378 16.005 30.9352 16.7618C32.8326 17.5186 34.4543 18.8003 35.5953 20.4446C36.7363 22.089 37.3453 24.0223 37.3453 25.9999C37.3453 28.6519 36.2513 31.1952 34.3039 33.0705C32.3566 34.9457 29.7154 35.9992 26.9615 35.9992Z" fill="#B11717" stroke="#B11717" stroke-width="2"/>
</svg>
