<svg width="5" height="18" viewBox="0 0 5 18" fill="none" xmlns="http://www.w3.org/2000/svg">
<path d="M4.19463 16.1108C4.19357 16.6279 4.01084 17.0707 3.64644 17.4392C3.28204 17.8078 2.83849 17.9887 2.31577 17.982C1.8044 17.9866 1.36727 17.8039 1.0044 17.4338C0.641525 17.0637 0.460621 16.6202 0.461686 16.1031C0.462716 15.6031 0.64543 15.1688 1.00983 14.8003C1.37423 14.426 1.81213 14.2366 2.3235 14.232C2.67008 14.2384 2.98523 14.3299 3.26896 14.5066C3.5527 14.6777 3.7795 14.9054 3.94937 15.1899C4.11357 15.4686 4.19532 15.7756 4.19463 16.1108ZM4.20898 9.1499C4.20791 9.66694 4.02518 10.1097 3.66078 10.4783C3.29639 10.8469 2.85283 11.0278 2.33012 11.021C1.81874 11.0257 1.38162 10.8429 1.01874 10.4729C0.655869 10.1028 0.474964 9.65925 0.476029 9.1422C0.47706 8.64221 0.659773 8.20792 1.02417 7.83935C1.38858 7.4651 1.82647 7.27566 2.33784 7.27104C2.68442 7.27743 2.99958 7.36899 3.2833 7.54571C3.56704 7.71675 3.79385 7.94449 3.96371 8.22893C4.12791 8.50768 4.20967 8.81467 4.20898 9.1499ZM4.22332 2.18897C4.22225 2.70602 4.03952 3.14882 3.67513 3.51739C3.31073 3.88596 2.86717 4.06687 2.34446 4.06011C1.83309 4.06473 1.39596 3.88202 1.03309 3.51195C0.670212 3.14188 0.489307 2.69833 0.490373 2.18128C0.491403 1.68128 0.674116 1.247 1.03851 0.878431C1.40292 0.504181 1.84081 0.314742 2.35219 0.310114C2.69877 0.31651 3.01392 0.408069 3.29765 0.58479C3.58138 0.75583 3.80819 0.98357 3.97806 1.26801C4.14226 1.54676 4.22401 1.85375 4.22332 2.18897Z" fill="black"/>
</svg>
